<?xml version="1.0" standalone="no"?>
<!DOCTYPE svg PUBLIC "-//W3C//DTD SVG 20010904//EN"
 "http://www.w3.org/TR/2001/REC-SVG-20010904/DTD/svg10.dtd">
<svg version="1.0" xmlns="http://www.w3.org/2000/svg"
 width="1080.000000pt" height="1080.000000pt" viewBox="0 0 1080.000000 1080.000000"
 preserveAspectRatio="xMidYMid meet">

<g transform="translate(0.000000,1080.000000) scale(0.100000,-0.100000)"
fill="#0082ff" stroke="none">
<path d="M5080 9949 c-208 -21 -388 -41 -425 -49 -22 -4 -71 -13 -110 -20 -38
-6 -83 -15 -100 -20 -16 -4 -57 -13 -90 -20 -33 -7 -71 -16 -85 -20 -14 -4
-59 -18 -100 -30 -81 -23 -138 -42 -295 -97 -164 -56 -208 -73 -320 -123 -77
-34 -316 -155 -374 -189 -28 -17 -54 -31 -57 -31 -3 0 -25 -13 -49 -30 -24
-16 -46 -30 -49 -30 -17 0 -244 -157 -410 -283 -387 -295 -773 -715 -1037
-1127 -47 -74 -97 -155 -111 -180 -14 -25 -37 -65 -51 -90 -29 -50 -143 -279
-190 -380 -80 -177 -235 -646 -268 -815 -5 -27 -14 -70 -19 -95 -68 -322 -102
-740 -88 -1092 8 -199 32 -443 58 -585 58 -312 76 -383 169 -663 99 -296 130
-374 248 -610 147 -295 310 -550 527 -822 164 -206 395 -446 556 -579 36 -30
77 -64 92 -77 141 -126 400 -304 673 -465 53 -31 408 -205 465 -227 242 -97
533 -191 710 -231 179 -41 171 -39 353 -69 94 -16 209 -27 462 -45 436 -30
906 16 1385 135 48 12 373 116 435 139 177 67 241 94 420 182 110 54 214 107
230 116 155 92 381 236 430 275 5 4 56 43 113 87 57 44 116 90 130 103 15 13
59 50 97 82 165 138 386 368 538 558 277 349 459 647 647 1063 39 87 159 422
192 540 11 39 24 84 28 100 21 71 31 113 41 160 5 28 14 70 19 95 61 286 85
547 85 915 0 382 -18 581 -81 890 -9 44 -20 98 -25 120 -10 49 -24 108 -38
155 -5 19 -14 51 -19 70 -16 60 -135 411 -162 475 -17 41 -38 91 -59 137 -35
77 -159 329 -169 341 -5 7 -23 37 -39 67 -341 625 -941 1244 -1577 1628 -149
90 -367 208 -476 256 -36 16 -87 39 -115 51 -121 55 -488 180 -655 224 -43 12
-96 24 -245 56 -30 7 -77 15 -209 35 -286 43 -769 62 -1006 39z m710 -530
c312 -30 630 -100 955 -207 171 -57 480 -200 670 -311 615 -360 1109 -854
1472 -1474 215 -368 387 -833 467 -1262 124 -662 81 -1348 -122 -1970 -166
-506 -385 -906 -731 -1335 -112 -139 -428 -454 -566 -564 -93 -74 -455 -326
-468 -326 -3 0 -36 -19 -73 -42 -55 -33 -348 -179 -439 -218 -57 -25 -342
-125 -400 -141 -130 -35 -195 -52 -225 -59 -80 -19 -148 -33 -190 -40 -147
-24 -258 -40 -360 -51 -155 -17 -676 -18 -800 -1 -237 32 -298 42 -477 83
-186 41 -498 141 -633 202 -129 57 -406 194 -485 239 -252 143 -549 371 -784
601 -103 101 -278 293 -341 374 -84 108 -120 157 -200 277 -130 195 -268 444
-333 601 -9 22 -30 74 -47 115 -29 69 -118 322 -134 380 -4 14 -12 41 -17 60
-10 32 -14 51 -38 150 -50 204 -86 461 -101 729 -15 263 6 602 55 888 27 154
39 206 96 408 88 315 268 727 428 980 35 55 69 109 75 120 6 11 23 36 37 55
14 19 66 89 114 155 308 417 728 791 1190 1060 201 118 505 259 680 317 403
133 828 213 1175 222 166 3 435 -4 550 -15z"/>
<path d="M5070 9275 c-74 -7 -169 -18 -210 -23 -41 -6 -109 -16 -150 -22 -93
-13 -393 -90 -509 -131 -47 -16 -131 -45 -186 -64 -82 -28 -365 -154 -439
-196 -10 -6 -33 -19 -50 -29 -261 -149 -513 -329 -694 -497 -57 -53 -120 -110
-140 -127 -64 -53 -278 -296 -383 -436 -103 -137 -179 -245 -179 -254 0 -3
-32 -58 -71 -123 -95 -156 -225 -427 -283 -588 -26 -71 -56 -152 -66 -180 -10
-27 -22 -68 -28 -90 -14 -53 -30 -116 -42 -165 -5 -22 -14 -58 -20 -80 -5 -22
-14 -57 -20 -77 -5 -21 -11 -56 -14 -78 -2 -22 -14 -101 -25 -175 -28 -186
-41 -483 -30 -720 8 -169 21 -286 59 -530 10 -64 92 -389 114 -452 13 -37 56
-157 101 -278 13 -36 46 -109 129 -284 62 -130 226 -400 328 -539 45 -62 93
-128 107 -147 50 -69 288 -321 371 -394 25 -22 86 -77 135 -123 50 -46 108
-95 129 -110 22 -14 46 -32 55 -39 170 -142 485 -327 806 -474 80 -37 394
-150 460 -166 102 -25 200 -50 250 -64 34 -9 116 -24 225 -40 41 -6 100 -15
130 -21 30 -5 150 -14 266 -19 213 -11 562 -1 684 20 30 5 89 14 130 20 109
16 191 31 225 40 36 10 105 28 158 41 20 5 56 14 80 20 64 17 404 138 467 166
313 143 541 276 781 455 85 64 163 124 174 134 11 11 61 55 110 99 50 44 124
116 165 160 41 44 111 118 156 165 160 169 438 581 544 805 22 47 58 123 80
170 22 47 61 143 86 213 25 70 54 150 65 177 34 89 109 406 135 570 36 227 53
555 42 780 -11 218 -51 536 -83 665 -46 183 -75 292 -89 333 -49 139 -119 322
-144 378 -94 203 -159 330 -236 458 -47 79 -86 145 -86 147 0 7 -229 306 -279
364 -102 117 -263 290 -282 304 -11 7 -41 33 -67 57 -225 210 -599 467 -855
588 -45 21 -123 59 -173 83 -50 25 -124 57 -165 71 -41 14 -112 40 -159 57
-154 58 -446 133 -595 154 -61 9 -141 20 -180 26 -217 31 -569 38 -815 15z
m588 -957 c15 -15 15 -68 1 -105 -6 -15 -15 -37 -19 -48 -4 -11 -65 -195 -135
-410 -69 -214 -131 -398 -136 -407 -5 -10 -9 -25 -9 -33 0 -8 -4 -23 -9 -33
-5 -9 -37 -104 -71 -210 -67 -207 -84 -235 -125 -208 -11 7 -21 22 -23 32 -3
18 74 257 298 934 43 129 94 287 115 350 20 63 44 123 52 133 19 20 44 22 61
5z m-538 -253 c12 -22 11 -27 -6 -46 -22 -24 -171 -129 -184 -129 -5 0 -10 -4
-12 -8 -1 -4 -88 -66 -193 -136 -104 -71 -196 -134 -203 -141 -12 -10 -5 -19
35 -46 26 -18 50 -35 53 -38 3 -3 34 -26 70 -50 36 -24 142 -96 235 -159 94
-63 180 -124 193 -135 29 -27 28 -53 -2 -73 -32 -20 -15 -30 -338 192 -431
295 -418 285 -382 326 10 11 84 64 164 119 80 54 226 155 325 223 191 133 221
146 245 101z m850 -130 c124 -85 276 -190 337 -232 115 -79 128 -92 118 -124
-4 -10 -123 -98 -266 -196 -143 -98 -290 -200 -327 -227 -82 -59 -107 -69
-133 -55 -15 8 -19 19 -17 42 3 33 31 54 471 349 75 50 137 95 137 99 0 5 -71
56 -157 116 -87 59 -162 111 -168 116 -5 5 -71 50 -145 101 -114 78 -136 97
-138 120 -4 31 11 46 43 45 11 0 121 -69 245 -154z m-1340 -2130 c316 -20 678
-167 915 -369 95 -82 105 -92 105 -112 0 -26 -429 -454 -455 -454 -11 0 -33
13 -50 28 -80 75 -254 172 -375 210 -128 40 -414 41 -550 2 -167 -48 -305
-135 -440 -277 -86 -91 -97 -104 -127 -158 -11 -22 -30 -56 -40 -75 -28 -51
-52 -115 -76 -200 -28 -102 -30 -369 -3 -475 33 -131 86 -247 157 -340 55 -72
207 -218 259 -249 88 -51 249 -126 272 -126 12 0 39 -5 58 -10 152 -42 399
-27 570 35 77 28 224 119 304 189 16 15 36 26 45 26 9 0 116 -100 238 -222
235 -237 235 -238 186 -278 -321 -264 -529 -365 -889 -429 -79 -14 -424 -14
-516 0 -158 25 -318 78 -458 151 -161 84 -194 107 -345 233 -216 181 -409 463
-496 726 -65 200 -73 259 -74 534 0 206 3 264 18 330 31 135 65 238 118 353
16 35 29 65 29 67 0 15 123 202 173 265 87 106 220 236 316 308 45 34 84 62
87 62 3 0 31 17 62 39 158 107 396 188 642 220 71 9 148 8 340 -4z m3308 -14
c29 -18 44 -1938 17 -2151 -26 -206 -81 -369 -167 -497 -15 -23 -28 -45 -28
-48 0 -7 -50 -71 -124 -158 -27 -32 -93 -93 -145 -136 -199 -161 -255 -189
-576 -284 -26 -8 -114 -12 -255 -11 -274 2 -321 11 -535 98 -49 21 -91 42 -93
47 -2 5 -8 9 -14 9 -5 0 -29 14 -54 30 -48 34 -55 59 -29 97 9 12 54 89 102
170 114 196 123 212 146 254 11 21 29 49 41 64 l22 28 51 -35 c93 -64 174 -89
303 -95 228 -11 363 39 510 187 94 94 139 171 172 295 27 99 30 291 21 1276
-4 460 -7 843 -5 852 3 15 32 17 315 17 172 0 318 -4 325 -9z"/>
</g>
</svg>
